<mxfile host="app.diagrams.net" modified="2022-05-02T13:13:21.304Z" agent="5.0 (Windows NT 10.0; Win64; x64) AppleWebKit/537.36 (KHTML, like Gecko) Chrome/100.0.4896.127 Safari/537.36" etag="b1E8imSUrSi-CCx3_N-G" version="17.5.0" type="github">
  <diagram id="u4d6mBt41ZNehzcnfW1P" name="Page-1">
    <mxGraphModel dx="1422" dy="762" grid="1" gridSize="10" guides="1" tooltips="1" connect="1" arrows="1" fold="1" page="1" pageScale="1" pageWidth="827" pageHeight="1169" math="0" shadow="0">
      <root>
        <mxCell id="0" />
        <mxCell id="1" parent="0" />
        <mxCell id="M8xZ13EeR0CNpsB9GsFM-66" value="module: M" style="shape=umlFrame;whiteSpace=wrap;html=1;width=100;height=30;" vertex="1" parent="1">
          <mxGeometry x="220" y="90" width="580" height="270" as="geometry" />
        </mxCell>
        <mxCell id="M8xZ13EeR0CNpsB9GsFM-1" value="function: foo" style="shape=umlFrame;whiteSpace=wrap;html=1;width=100;height=30;" vertex="1" parent="1">
          <mxGeometry x="480" y="130" width="300" height="210" as="geometry" />
        </mxCell>
        <mxCell id="M8xZ13EeR0CNpsB9GsFM-2" value="function: bar" style="shape=umlFrame;whiteSpace=wrap;html=1;width=100;height=30;" vertex="1" parent="1">
          <mxGeometry x="250" y="130" width="200" height="210" as="geometry" />
        </mxCell>
        <mxCell id="M8xZ13EeR0CNpsB9GsFM-9" style="edgeStyle=orthogonalEdgeStyle;rounded=0;orthogonalLoop=1;jettySize=auto;html=1;" edge="1" parent="1" source="M8xZ13EeR0CNpsB9GsFM-5" target="M8xZ13EeR0CNpsB9GsFM-7">
          <mxGeometry relative="1" as="geometry">
            <Array as="points">
              <mxPoint x="720" y="185" />
            </Array>
          </mxGeometry>
        </mxCell>
        <mxCell id="M8xZ13EeR0CNpsB9GsFM-10" style="edgeStyle=orthogonalEdgeStyle;rounded=0;orthogonalLoop=1;jettySize=auto;html=1;" edge="1" parent="1" source="M8xZ13EeR0CNpsB9GsFM-5" target="M8xZ13EeR0CNpsB9GsFM-6">
          <mxGeometry relative="1" as="geometry">
            <Array as="points">
              <mxPoint x="535" y="185" />
            </Array>
          </mxGeometry>
        </mxCell>
        <mxCell id="M8xZ13EeR0CNpsB9GsFM-5" value="&lt;p style=&quot;margin: 4px 0px 0px ; text-align: center&quot;&gt;&lt;b&gt;BB: %1&lt;/b&gt;&lt;/p&gt;&lt;hr&gt;&lt;p style=&quot;margin: 0px ; margin-left: 8px&quot;&gt;id = 5&lt;/p&gt;" style="verticalAlign=top;align=left;overflow=fill;fontSize=12;fontFamily=Helvetica;html=1;" vertex="1" parent="1">
          <mxGeometry x="595" y="150" width="70" height="70" as="geometry" />
        </mxCell>
        <mxCell id="M8xZ13EeR0CNpsB9GsFM-11" style="edgeStyle=orthogonalEdgeStyle;rounded=0;orthogonalLoop=1;jettySize=auto;html=1;" edge="1" parent="1" source="M8xZ13EeR0CNpsB9GsFM-6" target="M8xZ13EeR0CNpsB9GsFM-8">
          <mxGeometry relative="1" as="geometry">
            <Array as="points">
              <mxPoint x="535" y="285" />
            </Array>
          </mxGeometry>
        </mxCell>
        <mxCell id="M8xZ13EeR0CNpsB9GsFM-6" value="&lt;p style=&quot;margin: 4px 0px 0px ; text-align: center&quot;&gt;&lt;b&gt;BB: %2&lt;/b&gt;&lt;/p&gt;&lt;hr&gt;&lt;p style=&quot;margin: 0px ; margin-left: 8px&quot;&gt;id = 6&lt;/p&gt;" style="verticalAlign=top;align=left;overflow=fill;fontSize=12;fontFamily=Helvetica;html=1;" vertex="1" parent="1">
          <mxGeometry x="500" y="200" width="70" height="70" as="geometry" />
        </mxCell>
        <mxCell id="M8xZ13EeR0CNpsB9GsFM-12" style="edgeStyle=orthogonalEdgeStyle;rounded=0;orthogonalLoop=1;jettySize=auto;html=1;" edge="1" parent="1" source="M8xZ13EeR0CNpsB9GsFM-7" target="M8xZ13EeR0CNpsB9GsFM-8">
          <mxGeometry relative="1" as="geometry">
            <Array as="points">
              <mxPoint x="725" y="285" />
            </Array>
          </mxGeometry>
        </mxCell>
        <mxCell id="M8xZ13EeR0CNpsB9GsFM-7" value="&lt;p style=&quot;margin: 4px 0px 0px ; text-align: center&quot;&gt;&lt;b&gt;BB: %3&lt;/b&gt;&lt;/p&gt;&lt;hr&gt;&lt;p style=&quot;margin: 0px ; margin-left: 8px&quot;&gt;id = 7&lt;/p&gt;" style="verticalAlign=top;align=left;overflow=fill;fontSize=12;fontFamily=Helvetica;html=1;" vertex="1" parent="1">
          <mxGeometry x="690" y="200" width="70" height="70" as="geometry" />
        </mxCell>
        <mxCell id="M8xZ13EeR0CNpsB9GsFM-8" value="&lt;p style=&quot;margin: 4px 0px 0px ; text-align: center&quot;&gt;&lt;b&gt;BB: %4&lt;/b&gt;&lt;/p&gt;&lt;hr&gt;&lt;p style=&quot;margin: 0px ; margin-left: 8px&quot;&gt;id = 8&lt;/p&gt;" style="verticalAlign=top;align=left;overflow=fill;fontSize=12;fontFamily=Helvetica;html=1;" vertex="1" parent="1">
          <mxGeometry x="595" y="250" width="70" height="70" as="geometry" />
        </mxCell>
        <mxCell id="M8xZ13EeR0CNpsB9GsFM-16" style="edgeStyle=orthogonalEdgeStyle;rounded=0;orthogonalLoop=1;jettySize=auto;html=1;" edge="1" parent="1" source="M8xZ13EeR0CNpsB9GsFM-13" target="M8xZ13EeR0CNpsB9GsFM-15">
          <mxGeometry relative="1" as="geometry" />
        </mxCell>
        <mxCell id="M8xZ13EeR0CNpsB9GsFM-17" style="edgeStyle=orthogonalEdgeStyle;rounded=0;orthogonalLoop=1;jettySize=auto;html=1;" edge="1" parent="1" source="M8xZ13EeR0CNpsB9GsFM-13" target="M8xZ13EeR0CNpsB9GsFM-14">
          <mxGeometry relative="1" as="geometry" />
        </mxCell>
        <mxCell id="M8xZ13EeR0CNpsB9GsFM-13" value="&lt;p style=&quot;margin: 4px 0px 0px ; text-align: center&quot;&gt;&lt;b&gt;BB: %1&lt;/b&gt;&lt;/p&gt;&lt;hr&gt;&lt;p style=&quot;margin: 0px ; margin-left: 8px&quot;&gt;id = 9&lt;/p&gt;" style="verticalAlign=top;align=left;overflow=fill;fontSize=12;fontFamily=Helvetica;html=1;" vertex="1" parent="1">
          <mxGeometry x="360" y="150" width="70" height="70" as="geometry" />
        </mxCell>
        <mxCell id="M8xZ13EeR0CNpsB9GsFM-14" value="&lt;p style=&quot;margin: 4px 0px 0px ; text-align: center&quot;&gt;&lt;b&gt;BB: %2&lt;/b&gt;&lt;/p&gt;&lt;hr&gt;&lt;p style=&quot;margin: 0px ; margin-left: 8px&quot;&gt;id = 10&lt;/p&gt;" style="verticalAlign=top;align=left;overflow=fill;fontSize=12;fontFamily=Helvetica;html=1;" vertex="1" parent="1">
          <mxGeometry x="270" y="250" width="70" height="70" as="geometry" />
        </mxCell>
        <mxCell id="M8xZ13EeR0CNpsB9GsFM-15" value="&lt;p style=&quot;margin: 4px 0px 0px ; text-align: center&quot;&gt;&lt;b&gt;BB: %3&lt;/b&gt;&lt;/p&gt;&lt;hr&gt;&lt;p style=&quot;margin: 0px ; margin-left: 8px&quot;&gt;id = 11&lt;/p&gt;" style="verticalAlign=top;align=left;overflow=fill;fontSize=12;fontFamily=Helvetica;html=1;" vertex="1" parent="1">
          <mxGeometry x="360" y="250" width="70" height="70" as="geometry" />
        </mxCell>
      </root>
    </mxGraphModel>
  </diagram>
</mxfile>
